<svg width="25" height="26" viewBox="0 0 25 26" fill="none" xmlns="http://www.w3.org/2000/svg">
<g id="Group">
<path id="Vector" d="M14.7416 1.87868C14.7416 1.31414 15.2327 0.859131 15.842 0.859131C16.2603 0.859131 16.6223 1.07315 16.8087 1.38997H21.0357C21.4686 1.38997 21.826 1.70089 21.826 2.07753V4.07281C21.826 4.44946 21.4686 4.76038 21.0357 4.76038H16.9424V9.38121C17.3621 9.6056 17.6901 9.95205 17.8756 10.3668C18.061 10.7815 18.0936 11.2414 17.9682 11.675C17.8428 12.1087 17.5664 12.4918 17.182 12.7651C16.7976 13.0384 16.3265 13.1865 15.842 13.1864C15.3575 13.1865 14.8865 13.0384 14.502 12.7651C14.1176 12.4918 13.8413 12.1087 13.7159 11.675C13.5905 11.2414 13.623 10.7815 13.8085 10.3668C13.9939 9.95205 14.322 9.6056 14.7416 9.38121V1.87868Z" fill="#012C6D"/>
<path id="Vector_2" d="M6.22045 5.60297H13.8323V7.28817H10.6111C11.1896 7.82332 11.6482 8.45909 11.9606 9.15895C12.2731 9.85882 12.4332 10.609 12.4318 11.3664V19.5986H22.7264C22.847 19.5986 22.9627 19.5542 23.048 19.4752C23.1333 19.3962 23.1812 19.289 23.1812 19.1773V11.3672C23.1797 10.2859 22.7155 9.24932 21.8904 8.48467C21.0653 7.72002 19.9466 7.28973 18.7796 7.28817H17.8519V5.60297H18.7796C22.2117 5.60297 24.9891 8.18049 25 11.3638V19.1773C25 19.4539 24.9412 19.7278 24.8269 19.9834C24.7127 20.239 24.5452 20.4712 24.3341 20.6668C24.123 20.8624 23.8723 21.0176 23.5965 21.1234C23.3207 21.2293 23.025 21.2838 22.7264 21.2838H14.378V25.8591H9.84904V21.2838H2.27356C1.97499 21.2838 1.67935 21.2293 1.4035 21.1234C1.12766 21.0176 0.87703 20.8624 0.665911 20.6668C0.454792 20.4712 0.287323 20.239 0.173066 19.9834C0.0588096 19.7278 2.39764e-06 19.4539 2.39764e-06 19.1773V11.3664C-0.000715286 10.6093 0.159691 9.85957 0.472044 9.16002C0.784396 8.46048 1.24256 7.82486 1.82033 7.28955C2.39809 6.75423 3.08411 6.32973 3.83914 6.04033C4.59416 5.75092 5.40336 5.6023 6.22045 5.60297ZM1.81885 11.3664V19.1773C1.81885 19.289 1.86675 19.3962 1.95203 19.4752C2.0373 19.5542 2.15296 19.5986 2.27356 19.5986H3.66497C3.57034 19.4612 3.52045 19.3015 3.52128 19.1385V10.7799C3.52128 10.2701 3.98691 9.90361 4.50073 9.90361H10.3228C10.0051 9.13418 9.44282 8.47221 8.71032 8.00521C7.97782 7.53822 7.1096 7.28819 6.22045 7.28817C5.64222 7.28751 5.06953 7.39254 4.53518 7.59725C4.00083 7.80196 3.51531 8.10234 3.10644 8.48116C2.69757 8.85999 2.37338 9.30983 2.15243 9.80492C1.93149 10.3 1.81813 10.8306 1.81885 11.3664ZM10.613 18.9237V15.4892L4.4398 18.9043C4.4498 18.9127 4.46981 18.9237 4.50073 18.9237H10.613ZM10.613 14.4292V11.3664C10.613 11.1557 10.5957 10.9484 10.5629 10.7462H4.50073C4.47851 10.7453 4.45675 10.7522 4.4398 10.7656C4.4307 10.774 4.4307 10.7791 4.4307 10.7808V11.0108L10.613 14.4292ZM9.7972 14.9601L4.4307 11.9916V17.9269L9.7972 14.9601Z" fill="#012C6D"/>
</g>
</svg>
