<svg width="43" height="42" viewBox="0 0 43 42" fill="none" xmlns="http://www.w3.org/2000/svg">
<g id="SEARCH ICON">
<path id="Shape" fill-rule="evenodd" clip-rule="evenodd" d="M9 19.9246C9 14.7195 13.2195 10.5 18.4246 10.5C23.6296 10.5 27.8491 14.7195 27.8491 19.9246C27.8491 22.4717 26.8387 24.7829 25.1967 26.479C25.1556 26.5091 25.1163 26.5427 25.0792 26.5798C25.0421 26.6169 25.0086 26.6561 24.9785 26.6972C23.2824 28.3389 20.9715 29.3491 18.4246 29.3491C13.2195 29.3491 9 25.1296 9 19.9246ZM25.7647 28.6795C23.7795 30.3457 21.2192 31.3491 18.4246 31.3491C12.115 31.3491 7 26.2342 7 19.9246C7 13.615 12.115 8.5 18.4246 8.5C24.7342 8.5 29.8491 13.615 29.8491 19.9246C29.8491 22.7195 28.8455 25.28 27.179 27.2653L32.1618 32.2481C32.5523 32.6387 32.5523 33.2718 32.1618 33.6623C31.7713 34.0529 31.1381 34.0529 30.7476 33.6623L25.7647 28.6795Z" fill="#644141"/>
</g>
</svg>
